
<svg width="382px" height="299px" viewBox="0 0 382 299" version="1.1" xmlns="http://www.w3.org/2000/svg" xmlns:xlink="http://www.w3.org/1999/xlink">
    <!-- Generator: Sketch 43.2 (39069) - http://www.bohemiancoding.com/sketch -->
    <desc>Created with Sketch.</desc>
    <defs></defs>
    <g id="Page-1" stroke="none" stroke-width="1" fill="none" fill-rule="evenodd">
        <g id="AthensGyro" fill-rule="nonzero" fill="#FFFFFF">
            <polygon id="Shape" points="72.4482759 47.5889328 196.388715 0.553359684 307.15674 47.5889328"></polygon>
            <polygon id="Shape" points="58.677116 51.4624506 58.677116 60.3162055 314.940439 59.7628458 314.940439 53.1225296"></polygon>
            <polygon id="Shape" points="79.6224514 65.3650593 306.278978 64.1211067 306.114922 69.8793676 79.6475987 69.2385771"></polygon>
            <polygon id="Shape" points="70.6520376 77.4703557 110.169279 77.4703557 110.169279 86.3241107 101.786834 86.3241107 100.589342 161.581028 80.2319749 161.581028 80.2080251 85.2173913 70.6520376 85.2173913"></polygon>
            <polygon id="Shape" points="116.15674 77.4703557 152.081505 77.4703557 152.081505 85.2173913 143.69906 85.2173913 141.902821 161.581028 123.341693 161.581028 125.736677 85.2173913 116.15674 85.2173913"></polygon>
            <polygon id="Shape" points="156.871473 77.4703557 189.203762 77.4703557 189.802508 85.2173913 184.413793 85.2173913 182.617555 161.581028 165.253918 161.581028 167.050157 86.3241107 156.871473 86.3241107"></polygon>
            <polygon id="Shape" points="197.586207 77.4703557 197.586207 86.3241107 205.968652 86.3241107 205.968652 161.581028 223.931034 161.581028 223.931034 85.2173913 231.115987 84.6640316 231.115987 77.4703557"></polygon>
            <polygon id="Shape" points="239.498433 77.4703557 239.498433 88.5375494 245.485893 88.5375494 245.485893 161.581028 264.645768 161.581028 264.645768 88.5375494 271.830721 88.5375494 271.830721 77.4703557"></polygon>
            <polygon id="Shape" points="279.015674 77.4703557 279.015674 78.0237154 279.015674 89.6442688 285.003135 89.6442688 285.003135 161.581028 305.360502 161.581028 305.360502 88.5375494 314.940439 88.5375494 314.940439 77.4703557"></polygon>
            <path d="M60.4733542,123.952569 L0,226.324111 C0,232.964427 8.98119122,231.304348 8.98119122,231.304348 L64.6645768,204.189723 L72.4482759,226.324111 L99.9905956,223.003953 L60.4733542,123.952569 Z M38.3197492,198.102767 L56.2821317,160.474308 L64.6645768,185.928854 L38.3197492,198.102767 Z" id="Shape"></path>
            <polygon id="Shape" points="99.9905956 172.371542 104.780564 183.853755 116.15674 177.905138 116.15674 227.98419 142.501567 227.98419 142.501567 169.328063 157.470219 160.474308 149.985893 143.320158"></polygon>
            <polygon id="Shape" points="155.673981 221.343874 166.451411 221.343874 166.451411 191.462451 191.598746 191.462451 192.197492 221.343874 206.567398 221.343874 206.004577 155.212964 192.950715 154.802372 192.197492 180.395257 170.642633 180.395257 171.680859 154.110672 156.902608 154.678419"></polygon>
            <polygon id="Shape" points="256.862069 145.763794 215.548589 185.213913 256.862069 226.93502 270.034483 215.285692 240.695925 191.476838 265.84326 192.807115 265.244514 179.288538 240.695925 179.288538 270.034483 156.600791"></polygon>
            <polygon id="Shape" points="271.830721 212.490119 288.595611 212.490119 288.595611 179.288538 320.9279 236.837945 325.717868 236.837945 325.717868 158.26087 314.940439 160.474308 314.940439 193.675889 271.830721 136.126482"></polygon>
            <polygon id="Shape" points="337.69279 226.93502 381.401254 201.976285 352.661442 173.754941 378.407524 154.940711 364.636364 143.320158 326.915361 168.221344 354.158307 195.889328 326.915361 215.256917"></polygon>
            <polygon id="Shape" points="143.69906 226.87747 143.69906 242.371542 115.857367 260.632411 129.329154 272.806324 129.329154 256.758893 143.69906 256.205534 143.69906 298.814229 94.0031348 260.079051"></polygon>
            <polygon id="Shape" points="158.068966 296.600791 179.623824 296.600791 179.623824 260.079051 198.184953 235.731225 185.311912 226.93502 170.492947 250.671937 155.599737 226.93502 144.859429 240.158103 161.642282 263.399209"></polygon>
            <g id="Group" transform="translate(232.313480, 226.877470)">
                <path d="M27.5423197,0.0575494071 L0,27.1146245 L31.1347962,68.6166008 L59.2758621,28.2213439 L27.5423197,0.0575494071 Z M29.637931,44.2687747 L19.1598746,30.4347826 L29.637931,17.7075099 L37.7210031,30.4347826 L29.637931,44.2687747 Z" id="Shape"></path>
            </g>
            <path d="M222.733542,262.84585 L235.30721,250.671937 L197.586207,226.93502 L197.586207,296.600791 L210.758621,296.600791 L210.758621,268.932806 L227.523511,295.494071 L240.396552,284.980237 L222.733542,262.84585 Z M208.363636,257.865613 L208.363636,247.905138 L214.351097,251.225296 L208.363636,257.865613 Z" id="Shape"></path>
        </g>
    </g>
</svg>
