
<svg width="399px" height="218px" viewBox="0 0 399 218" version="1.1" xmlns="http://www.w3.org/2000/svg" xmlns:xlink="http://www.w3.org/1999/xlink">
    <!-- Generator: Sketch 43.2 (39069) - http://www.bohemiancoding.com/sketch -->
    <desc>Created with Sketch.</desc>
    <defs></defs>
    <g id="Page-1" stroke="none" stroke-width="1" fill="none" fill-rule="evenodd">
        <g id="BetterATA" transform="translate(0.000000, 1.000000)" stroke="#FFFFFF">
            <g id="Group" transform="translate(0.736827, 0.000000)">
                <polygon id="Shape" points="133.560066 38.8418552 136.995564 53.6353782 137.345203 55.0663111 171.039654 62.1363396 171.129139 38.3812798"></polygon>
                <polygon id="Shape" points="227.908034 49.5600736 241.702611 37.8892121 227.864675 37.8892121"></polygon>
                <path d="M123.157628,66.1831043 C119.467512,69.2585274 111.049434,71.5958489 107.705267,64.9529351 C107.705267,64.9529351 98.36466,56.5877844 99.9790859,52.0361582 C101.593512,47.4845321 103.553886,47.9765998 103.553886,47.9765998 L137.345203,55.0663111 L136.995564,53.6353782 L133.329434,38.8418552 L130.537861,38.8733475 L130.537861,27.8106817 L124.541422,0.49206769 L44.2813944,0.49206769 L0,161.89027 L68.7284143,161.89027 L68.2671497,136.548784 L99.6331375,137.163869 L100.555667,161.89027 L163.287642,161.89027 L142.347155,75.8168056 C132.967802,69.8362149 124.649358,64.9391572 123.157628,66.1831043 Z M71.9572659,105.794553 L83.0276146,37.8892121 L94.0979632,105.794553 L71.9572659,105.794553 Z" id="Shape" fill="#FFFFFF" fill-rule="nonzero"></path>
                <path d="M206.761823,131.259056 C206.761823,131.259056 210.797888,125.969329 225.788985,126.70743 C225.788985,126.70743 202.956391,121.171669 201.572598,110.469196 C201.572598,110.469196 189.003139,98.1675042 172.2823,96.0762165 C172.2823,96.0762165 171.790592,95.9659933 170.916957,95.338115 L170.667874,161.89027 L228.32594,161.89027 L228.271511,147.083953 C215.702052,146.760173 199.225684,143.836307 206.761823,131.259056 Z" id="Shape" fill="#FFFFFF" fill-rule="nonzero"></path>
                <path d="M171.129139,38.3812798 L170.809021,62.1363396 L214.488004,71.3498151 L214.488004,60.0322582 L227.677402,49.3140398 L227.864675,37.8892121 L241.702611,37.8892121 C241.702611,37.8892121 250.273829,26.0795876 257.84687,37.8892121 L263.843308,37.8892121 C263.843308,37.8892121 263.382044,27.8411899 268.917218,22.5622877 L268.917218,3.44447383 L130.537861,3.44447383 L130.537861,27.8106817 L133.329434,38.8418552 L171.129139,38.3812798 Z" id="Shape" fill="#FFFFFF" fill-rule="nonzero"></path>
                <polygon id="Shape" fill="#FFFFFF" fill-rule="nonzero" points="133.098801 38.8418552 130.537861 27.8106817 130.537861 38.8733475"></polygon>
                <path d="M355.634949,3.44447383 L276.758715,3.44447383 L272.342569,20.8390667 C274.495751,19.8116293 277.186769,19.1247028 280.564148,19.3136568 C298.092199,20.2977922 295.901193,35.6138911 295.901193,35.6138911 C295.901193,35.6138911 297.400303,49.730329 281.140728,54.2819552 C281.140728,54.2819552 285.407425,67.4290197 282.87047,70.0123751 C280.333515,72.5957305 260.845089,95.9610727 260.845089,95.9610727 L281.140728,128.18757 C281.140728,128.18757 285.86869,136.919803 277.565928,142.332548 C277.565928,142.332548 263.696626,151.269481 240.821596,146.739506 L240.821596,146.739506 L237.089966,161.89027 L301.205735,161.89027 L301.205735,139.255156 L330.2654,139.255156 L332.571723,161.89027 L397.610021,161.89027 L355.634949,3.44447383 Z M305.357116,105.794553 L316.427464,37.8892121 L327.497813,105.794553 L305.357116,105.794553 Z" id="Shape" fill="#FFFFFF" fill-rule="nonzero"></path>
                <path d="M142.347155,75.5707717 C153.76622,82.8514053 166.751739,92.1003096 170.916035,95.0920811" id="Shape" fill="#000000" fill-rule="nonzero"></path>
            </g>
            <text id="MARTIAL-ARTS" stroke-width="1.29305085" fill="#FFFFFF" font-family="Helvetica" font-size="53" font-weight="normal">
                <tspan x="10.5248035" y="214.74952">MARTIAL ARTS</tspan>
            </text>
        </g>
    </g>
</svg>
