
<svg width="350px" height="240px" viewBox="0 0 350 240" version="1.1" xmlns="http://www.w3.org/2000/svg" xmlns:xlink="http://www.w3.org/1999/xlink">
    <!-- Generator: Sketch 43.2 (39069) - http://www.bohemiancoding.com/sketch -->
    <desc>Created with Sketch.</desc>
    <defs></defs>
    <g id="Page-1" stroke="none" stroke-width="1" fill="none" fill-rule="evenodd">
        <g id="Dumont" transform="translate(0.000000, 1.000000)" stroke="#050505" fill-rule="nonzero" fill="#FFFFFF">
            <path d="M145.940498,53.3775557 C151.816063,36.8029716 163.136425,25.3175098 174.855882,17.439269 C156.041403,4.78924834 136.199095,1.46006568 136.199095,1.46006568 C50.678733,-3.87798103 55.3364253,11.1637524 43.2875566,23.7846592 C30.2045249,37.4886057 25.3393665,88.327423 25.3393665,88.327423 L8.85769231,110.663662 C-13.9588235,135.895286 19.5334842,124.76647 12.1423077,133.985409 C4.75113122,143.204348 12.1423077,157.337726 12.1423077,157.337726 C12.1423077,184.025048 29.0357466,180.628903 50.678733,182.084602 C72.3217195,183.5403 50.678733,238.008174 50.678733,238.008174 L165.762217,238.008174 L156.259955,212.169524 C137.782805,183.5403 168.929638,152.062274 168.929638,152.062274 C171.018552,150.082524 172.98552,148.012521 174.855882,146.034226 C130.39638,99.044276 145.940498,53.3775557 145.940498,53.3775557 Z M131.447964,232.183924 L79.1855204,232.183924 C79.1855204,232.183924 75.2262443,227.816829 79.1855204,226.36113 L131.447964,226.36113 C131.447964,226.36113 135.605204,229.272527 131.447964,232.183924 Z M131.447964,224.905431 L79.1855204,224.905431 C79.1855204,224.905431 75.2262443,220.538336 79.1855204,219.082637 L131.447964,219.082637 C131.447964,219.082637 135.605204,221.994034 131.447964,224.905431 Z M131.447964,217.626938 L79.1855204,217.626938 C79.1855204,217.626938 75.2262443,213.259843 79.1855204,211.804144 L131.447964,211.804144 C131.447964,211.804144 135.605204,214.715541 131.447964,217.626938 Z M155.726244,141.178016 C155.726244,141.178016 154.411765,167.405337 129.072398,183.054097 L129.072398,197.975008 C129.072398,197.975008 137.386878,198.702857 130.656109,208.892747 L78.9099548,208.892747 C78.9099548,208.892747 72.0588235,200.52248 78.3936652,198.15697 L78.3936652,183.418022 C78.3936652,183.418022 52.2624434,162.12843 52.2624434,135.379968 C52.2624434,108.631507 76.1257919,94.074521 103.192986,94.074521 C130.260181,94.074521 155.726244,103.487068 155.726244,141.178016 Z" id="Shape"></path>
            <path d="M340.855656,110.663662 L324.373982,88.327423 C324.373982,88.327423 321.358597,35.786894 306.425792,23.7832035 C292.371946,12.4869825 299.034615,-3.87943673 213.514253,1.45860998 C213.514253,1.45860998 193.671946,4.78924834 174.857466,17.4378133 C186.575339,25.3160541 197.897285,36.8015159 203.772851,53.3761 C203.772851,53.3761 219.316968,98.952567 174.857466,145.939606 C176.729412,147.9179 178.694796,149.89765 180.78371,151.8774 C180.78371,151.8774 211.930543,183.538845 193.453394,212.166613 L183.951131,238.005263 L299.034615,238.005263 C299.034615,238.005263 277.390045,183.537389 299.034615,182.08169 C320.679186,180.625992 337.571041,184.204099 337.571041,157.516777 C337.571041,157.516777 344.962217,143.293146 337.571041,134.074207 C330.179864,124.856723 363.672172,135.895286 340.855656,110.663662 Z M270.81448,232.183924 L218.552036,232.183924 C218.552036,232.183924 214.59276,227.816829 218.552036,226.36113 L270.81448,226.36113 C270.81448,226.36113 274.971719,229.272527 270.81448,232.183924 Z M270.81448,224.905431 L218.552036,224.905431 C218.552036,224.905431 214.59276,220.538336 218.552036,219.082637 L270.81448,219.082637 C270.81448,219.082637 274.971719,221.994034 270.81448,224.905431 Z M270.81448,217.626938 L218.552036,217.626938 C218.552036,217.626938 214.59276,213.259843 218.552036,211.804144 L270.81448,211.804144 C270.81448,211.804144 274.971719,214.715541 270.81448,217.626938 Z M268.438914,183.054097 L268.438914,197.975008 C268.438914,197.975008 276.753394,198.702857 270.022624,208.892747 L218.276471,208.892747 C218.276471,208.892747 211.425339,200.52248 217.760181,198.15697 L217.760181,183.418022 C217.760181,183.418022 191.628959,162.12843 191.628959,135.379968 C191.628959,108.631507 215.690271,94.074521 242.757466,94.074521 C269.824661,94.074521 294.992986,103.487068 294.992986,141.178016 C294.992986,141.178016 293.778281,167.405337 268.438914,183.054097 Z" id="Shape"></path>
            <path d="M203.771267,53.3775557 C197.895701,36.8029716 186.575339,25.3175098 174.855882,17.439269 C163.138009,25.3175098 151.816063,36.8029716 145.940498,53.3775557 C145.940498,53.3775557 130.39638,98.9540227 174.855882,145.941062 C219.315385,98.9540227 203.771267,53.3775557 203.771267,53.3775557 Z" id="Shape"></path>
        </g>
    </g>
</svg>