
<svg width="250px" height="319px" viewBox="0 0 250 319" version="1.1" xmlns="http://www.w3.org/2000/svg" xmlns:xlink="http://www.w3.org/1999/xlink">
    <!-- Generator: Sketch 43.2 (39069) - http://www.bohemiancoding.com/sketch -->
    <desc>Created with Sketch.</desc>
    <defs></defs>
    <g id="Page-1" stroke="none" stroke-width="1" fill="none" fill-rule="evenodd">
        <g id="RajniJeweller" transform="translate(-1.000000, 0.000000)">
            <g id="Group" transform="translate(13.085308, 0.000000)">
                <path d="M151.145804,272.620062 C167.589908,252.04344 140.855294,246.920665 140.855294,246.920665 C114.408977,247.826455 126.888302,273.021163 126.888302,273.021163 C154.412233,295.906828 169.806713,267.802027 169.806713,267.802027 C181.468732,247.32538 149.280273,198.743931 149.280273,198.743931 C179.135768,148.957974 134.351826,135.708379 134.351826,135.708379 C130.619364,123.663292 145.547812,107.603578 145.547812,107.603578 C133.418361,110.816003 123.621873,97.9675085 123.621873,97.9675085 C114.758851,98.7709158 111.492423,138.318549 111.492423,138.318549 C49.4484695,153.574856 50.3819348,287.877573 50.3819348,287.877573 L43.3844438,287.877573 L60.7032339,171.60876 C70.0336883,133.064482 39.3021076,132.127375 39.3021076,132.127375 C4.31465291,136.945409 11.4283022,178.58407 11.4283022,178.58407 L15.6267968,159.823847 C36.3869529,127.502061 41.5189127,146.058722 46.1834402,147.263231 C50.8479677,148.467739 25.1909674,285.725116 25.1909674,285.725116 L0,285.468556 L0,298.718151 L77.9058656,298.718151 L77.4398327,288.243744 L56.6810761,286.57309 C52.9486144,274.929105 65.0780652,211.842963 65.0780652,211.842963 C73.4750544,161.454752 113.594469,145.970793 113.594469,145.970793 C107.76136,161.429457 134.351826,202.67063 134.351826,202.67063 C123.155841,217.525835 74.6394369,217.068122 74.6394369,217.068122 C76.2726512,232.525582 88.6680067,248.745495 96.7976917,262.209493 C104.80562,275.469929 118.256197,288.320832 118.256197,288.320832 C145.546412,304.609403 159.541394,287.282546 163.040139,283.66902 C166.538885,280.055494 162.806423,278.44627 162.806423,278.44627 C139.014954,300.930834 125.253688,277.942786 125.253688,277.942786 C124.204065,278.54504 91.5915584,221.931928 91.5915584,221.931928 C122.454692,222.534182 139.24867,207.778951 139.24867,207.778951 C145.546412,215.006003 154.312869,237.53152 157.617084,243.46252 L162.690265,256.260425 C164.964449,287.577651 136.215958,274.228081 136.215958,274.228081 C140.883284,275.832486 151.145804,272.620062 151.145804,272.620062 Z M144.848062,188.505608 C138.375383,186.397717 133.302202,149.208512 133.302202,149.208512 C149.396432,149.509639 151.320742,190.613498 144.848062,188.505608 Z" id="Shape" stroke="#FFFFFF"></path>
                <path d="M127.354335,81.3043355 C127.354335,81.3043355 141.464076,61.1745866 142.982531,57.415315 C144.286864,54.1860272 145.081779,33.7262429 137.850572,33.7262429 C137.850572,33.7262429 136.217357,22.4845634 149.51259,36.7375146 C149.51259,36.7375146 157.20983,50.3882114 152.311586,61.8310438 L144.148313,78.4942168 C144.148313,78.4942168 161.835171,58.2187223 172.351001,59.6231794 C182.86683,61.028841 152.311586,87.7279803 152.311586,88.3302346 C152.311586,88.932489 186.133259,57.4141105 210.390761,76.8874022 C210.390761,76.8874022 185.899543,71.8682146 176.569088,84.7167086 C176.569088,84.7167086 156.276365,110.212544 137.383139,102.985492 C137.384539,102.985492 116.858099,99.5731186 127.354335,81.3043355 Z" id="Shape" fill="#FFFFFF" fill-rule="nonzero"></path>
                <path d="M164.441037,39.3476849 C164.441037,39.3476849 211.557943,64.642367 234.18223,60.4265867 C234.18223,60.4265867 171.670845,67.1236549 156.510081,50.124424 C156.510081,50.1232195 143.68228,35.7341588 164.441037,39.3476849 Z" id="Shape" fill="#FFFDFD" fill-rule="nonzero"></path>
                <path d="M213.423474,0.602254337 L191.731252,4.21578036 L191.731252,37.3397689 L234.18223,37.3397689 L237.040006,20.5766217 L213.423474,0.602254337 Z M224.853175,14.5625099 L219.929741,19.6901033 L212.723725,13.6506968 L218.78775,9.43491645 L224.853175,14.5625099 Z M212.723725,3.61352602 L216.688503,7.82930638 L209.516075,11.4428324 L201.060307,4.8180347 L212.723725,3.61352602 Z M194.530248,5.82139042 L202.461204,12.8472895 L194.530248,25.4958351 L194.530248,5.82139042 Z M197.329244,28.9082082 L207.941639,14.0530027 L215.172846,21.4812077 L197.329244,29.5152806 L197.329244,28.9082082 Z M205.260201,34.9307516 L219.954932,27.1014452 L227.885888,34.9307516 L205.260201,34.9307516 Z M229.983736,29.5152806 L222.520212,22.2834105 L226.48499,16.4620201 L232.316699,20.3766732 L229.983736,29.5152806 Z" id="Shape" fill="#FFFFFF" fill-rule="nonzero"></path>
                <path d="M174.457246,31.0654832 C174.457246,31.0654832 209.397117,55.1147034 227.961461,53.5705233 C227.961461,53.5705233 177.211458,53.875264 166.934943,39.0477622 C166.936342,39.0465577 158.24126,26.4955773 174.457246,31.0654832 Z" id="Shape" fill="#FFFDFD" fill-rule="nonzero"></path>
                <path d="M185.481093,23.1313846 C185.481093,23.1313846 215.703256,48.9018477 233.437697,49.0512067 C233.437697,49.0512067 185.413917,44.9378096 177.433978,30.0259922 C177.435378,30.0271967 170.682799,17.4039458 185.481093,23.1313846 Z" id="Shape" fill="#FFFDFD" fill-rule="nonzero"></path>
                <path d="M180.069233,104.27552 C191.731252,94.9261241 223.453677,104.27552 223.453677,104.27552 C181.468732,77.2595954 149.746306,108.606934 149.746306,108.606934 C141.836342,114.599364 161.642041,125.068954 175.897329,125.068954 C190.152618,125.068954 208.291514,111.418257 208.52523,109.611494 C208.758946,107.804731 180.069233,104.27552 180.069233,104.27552 Z M161.875757,119.64746 C162.109473,118.644104 168.873248,111.617001 171.206211,112.420408 C171.206211,112.420408 170.467276,117.639544 172.3524,120.450867 C172.351001,120.450867 161.642041,120.65202 161.875757,119.64746 Z M180.535266,120.467731 C183.573577,115.926733 180.535266,112.357774 180.535266,112.357774 C180.30155,108.078154 196.285219,111.418257 196.285219,111.418257 C196.285219,111.418257 177.496956,125.008728 180.535266,120.467731 Z" id="Shape" fill="#F9F9F9" fill-rule="nonzero"></path>
            </g>
            <text id="RAJNI-JEWELERS" font-family="Helvetica" font-size="20" font-weight="normal" fill="#FFFFFF">
                <tspan x="0" y="317.048276">RAJNI JEWELERS</tspan>
            </text>
        </g>
    </g>
</svg>